<svg xmlns="http://www.w3.org/2000/svg" viewBox="0 0 334 334" width="334" height="334">
	<style>
		tspan { white-space:pre }
		.shp0 { fill: #569cda } 
	</style>
	<g id="g10">
		<g id="g12">
			<path id="path14" class="shp0" d="M104.83 302.12C230.62 302.12 299.41 197.9 299.41 107.54C299.41 104.58 299.35 101.63 299.22 98.7C312.57 89.04 324.18 77 333.33 63.29C321.08 68.73 307.89 72.4 294.06 74.05C308.18 65.59 319.02 52.19 324.13 36.22C310.91 44.06 296.28 49.75 280.71 52.82C268.23 39.53 250.45 31.21 230.79 31.21C193.02 31.21 162.39 61.84 162.39 99.6C162.39 104.97 162.99 110.18 164.16 115.19C107.33 112.33 56.93 85.12 23.2 43.74C17.32 53.84 13.94 65.59 13.94 78.11C13.94 101.84 26.01 122.79 44.37 135.04C33.15 134.69 22.61 131.61 13.4 126.48C13.38 126.77 13.38 127.05 13.38 127.35C13.38 160.48 36.96 188.13 68.25 194.4C62.51 195.96 56.46 196.81 50.22 196.81C45.81 196.81 41.53 196.37 37.36 195.57C46.07 222.74 71.32 242.52 101.25 243.07C77.84 261.42 48.36 272.35 16.31 272.35C10.8 272.35 5.35 272.03 0 271.4C30.27 290.8 66.2 302.12 104.83 302.12" />
		</g>
	</g>
</svg>